<svg width="648" height="576" viewBox="0 0 648 576" fill="none" xmlns="http://www.w3.org/2000/svg">
<path opacity="0.5" d="M324 11L563.023 149.25V425.75L324 564L84.977 425.75V149.25L324 11Z" fill="#D9D9D9"/>
<line x1="325.83" y1="7.16987" x2="566.069" y2="145.872" stroke="#BCBFC6" stroke-width="10" stroke-linecap="square"/>
<line x1="5" y1="-5" x2="282.404" y2="-5" transform="matrix(-0.866025 0.5 0.5 0.866025 328.899 9)" stroke="#BCBFC6" stroke-width="10" stroke-linecap="square"/>
<line x1="5" y1="-5" x2="282.404" y2="-5" transform="matrix(0.866025 -0.5 -0.5 -0.866025 319 284.702)" stroke="#BCBFC6" stroke-width="10" stroke-linecap="square"/>
<line x1="322.069" y1="286.532" x2="81.8302" y2="147.83" stroke="#BCBFC6" stroke-width="10" stroke-linecap="square"/>
<line x1="568" y1="426.404" x2="568" y2="149" stroke="#BCBFC6" stroke-width="10" stroke-linecap="square"/>
<line x1="80" y1="426.404" x2="80" y2="149" stroke="#BCBFC6" stroke-width="10" stroke-linecap="square"/>
<line x1="5" y1="-5" x2="282.404" y2="-5" transform="matrix(0.866025 -0.5 -0.5 -0.866025 319 566.404)" stroke="#BCBFC6" stroke-width="10" stroke-linecap="square"/>
<line x1="322.069" y1="568.234" x2="81.8302" y2="429.532" stroke="#BCBFC6" stroke-width="10" stroke-linecap="square"/>
<line x1="325.83" y1="288.872" x2="566.069" y2="427.574" stroke="#BCBFC6" stroke-width="10" stroke-linecap="square"/>
<line x1="5" y1="-5" x2="282.404" y2="-5" transform="matrix(-0.866025 0.5 0.5 0.866025 328.899 290.702)" stroke="#BCBFC6" stroke-width="10" stroke-linecap="square"/>
<line x1="5" y1="-5" x2="282" y2="-5" transform="matrix(0 1 1 0 573 144)" stroke="#BCBFC6" stroke-width="10" stroke-linecap="square"/>
<line x1="5" y1="-5" x2="282" y2="-5" transform="matrix(0 1 1 0 329 4)" stroke="#BCBFC6" stroke-width="10" stroke-linecap="square"/>
<line x1="5" y1="-5" x2="282" y2="-5" transform="matrix(0 1 1 0 329 285)" stroke="#BCBFC6" stroke-width="10" stroke-linecap="square"/>
<path opacity="0.5" d="M324 0L573 144L324 288L75 144L324 0Z" fill="#D9D9D9"/>
<g opacity="0.75">
<mask id="path-16-inside-1_51_173" fill="white">
<path d="M486.967 380.98L323.7 475.4L162.097 381.942L324 287.5L486.967 380.98ZM162 381.887L0 288.2L162 194.513V381.887ZM647.4 288.2L486.999 380.962L485.003 194.283L647.4 288.2ZM323.85 101.086L173.627 187.788L323.7 101L323.85 101.086Z"/>
</mask>
<path d="M486.967 380.98L323.7 475.4L162.097 381.942L324 287.5L486.967 380.98ZM162 381.887L0 288.2L162 194.513V381.887ZM647.4 288.2L486.999 380.962L485.003 194.283L647.4 288.2ZM323.85 101.086L173.627 187.788L323.7 101L323.85 101.086Z" fill="#38BDF8"/>
<path d="M486.967 380.98L489.47 385.309L496.985 380.963L489.455 376.643L486.967 380.98ZM323.7 475.4L321.197 479.729L323.7 481.176L326.203 479.729L323.7 475.4ZM162.097 381.942L159.577 377.623L152.141 381.961L159.594 386.271L162.097 381.942ZM324 287.5L326.488 283.163L323.979 281.724L321.481 283.181L324 287.5ZM162 381.887L159.497 386.215L167 390.554V381.887H162ZM0 288.2L-2.50314 283.872L-9.98749 288.2L-2.50312 292.529L0 288.2ZM162 194.513H167V185.845L159.497 190.184L162 194.513ZM647.4 288.2L649.904 292.529L657.388 288.2L649.904 283.872L647.4 288.2ZM486.999 380.962L481.999 381.015L482.091 389.576L489.502 385.29L486.999 380.962ZM485.003 194.283L487.506 189.955L479.909 185.562L480.003 194.337L485.003 194.283ZM323.85 101.086L326.349 105.416L333.865 101.078L326.342 96.7517L323.85 101.086ZM173.627 187.788L171.124 183.46L176.126 192.119L173.627 187.788ZM323.7 101L326.193 96.6658L323.693 95.228L321.197 96.6717L323.7 101ZM486.967 380.98L484.464 376.652L321.197 471.072L323.7 475.4L326.203 479.729L489.47 385.309L486.967 380.98ZM323.7 475.4L326.203 471.072L164.6 377.614L162.097 381.942L159.594 386.271L321.197 479.729L323.7 475.4ZM162.097 381.942L164.616 386.261L326.519 291.819L324 287.5L321.481 283.181L159.577 377.623L162.097 381.942ZM324 287.5L321.512 291.837L484.479 385.318L486.967 380.98L489.455 376.643L326.488 283.163L324 287.5ZM162 381.887L164.503 377.558L2.50312 283.872L0 288.2L-2.50312 292.529L159.497 386.215L162 381.887ZM0 288.2L2.50314 292.529L164.503 198.841L162 194.513L159.497 190.184L-2.50314 283.872L0 288.2ZM162 194.513H157V381.887H162H167V194.513H162ZM647.4 288.2L644.897 283.872L484.496 376.634L486.999 380.962L489.502 385.29L649.904 292.529L647.4 288.2ZM486.999 380.962L491.999 380.908L490.003 194.23L485.003 194.283L480.003 194.337L481.999 381.015L486.999 380.962ZM485.003 194.283L482.5 198.612L644.897 292.529L647.4 288.2L649.904 283.872L487.506 189.955L485.003 194.283ZM323.85 101.086L321.35 96.7554L171.128 183.458L173.627 187.788L176.126 192.119L326.349 105.416L323.85 101.086ZM173.627 187.788L176.13 192.116L326.203 105.328L323.7 101L321.197 96.6717L171.124 183.46L173.627 187.788ZM323.7 101L321.207 105.334L321.357 105.42L323.85 101.086L326.342 96.7517L326.193 96.6658L323.7 101Z" fill="#3195C4" mask="url(#path-16-inside-1_51_173)"/>
</g>
<g opacity="0.75">
<mask id="path-18-inside-2_51_173" fill="white">
<path d="M323.997 287.961L162 382L322.15 474.719L162 567V194.766L323.006 101.668L323.997 287.961ZM485 194.21L324.013 101.086L485 8V194.21Z"/>
</mask>
<path d="M323.997 287.961L162 382L322.15 474.719L162 567V194.766L323.006 101.668L323.997 287.961ZM485 194.21L324.013 101.086L485 8V194.21Z" fill="#F59E0B"/>
<path d="M323.997 287.961L326.507 292.285L329.012 290.831L328.997 287.934L323.997 287.961ZM162 382L159.49 377.676L152.031 382.006L159.495 386.327L162 382ZM322.15 474.719L324.647 479.051L332.147 474.729L324.656 470.392L322.15 474.719ZM162 567H157V575.652L164.496 571.332L162 567ZM162 194.766L159.497 190.437L157 191.881V194.766H162ZM323.006 101.668L328.006 101.641L327.96 93.0277L320.503 97.3395L323.006 101.668ZM485 194.21L482.496 198.538L490 202.879V194.21H485ZM324.013 101.086L321.51 96.7574L314.025 101.085L321.509 105.414L324.013 101.086ZM485 8H490V-0.666772L482.497 3.6715L485 8ZM323.997 287.961L321.487 283.637L159.49 377.676L162 382L164.51 386.324L326.507 292.285L323.997 287.961ZM162 382L159.495 386.327L319.645 479.046L322.15 474.719L324.656 470.392L164.505 377.673L162 382ZM322.15 474.719L319.654 470.387L159.504 562.668L162 567L164.496 571.332L324.647 479.051L322.15 474.719ZM162 567H167V194.766H162H157V567H162ZM162 194.766L164.503 199.094L325.509 105.996L323.006 101.668L320.503 97.3395L159.497 190.437L162 194.766ZM323.006 101.668L318.006 101.695L318.997 287.988L323.997 287.961L328.997 287.934L328.006 101.641L323.006 101.668ZM485 194.21L487.504 189.882L326.516 96.7579L324.013 101.086L321.509 105.414L482.496 198.538L485 194.21ZM324.013 101.086L326.516 105.414L487.503 12.3285L485 8L482.497 3.6715L321.51 96.7574L324.013 101.086ZM485 8H480V194.21H485H490V8H485Z" fill="#E6823D" mask="url(#path-18-inside-2_51_173)"/>
</g>
<g opacity="0.75">
<mask id="path-20-inside-3_51_173" fill="white">
<path d="M487 195.103V570L162 382.551V381.5L324 287.533V100.79L162 194.5V7L487 195.103ZM162 381.5L323.624 475.5L487 381L324.123 287.5L162 381.5Z"/>
</mask>
<path d="M487 195.103V570L162 382.551V381.5L324 287.533V100.79L162 194.5V7L487 195.103ZM162 381.5L323.624 475.5L487 381L324.123 287.5L162 381.5Z" fill="#A78BFA"/>
<path d="M487 195.103H492V192.219L489.505 190.775L487 195.103ZM487 570L484.502 574.331L492 578.656V570H487ZM162 382.551H157V385.439L159.502 386.882L162 382.551ZM162 381.5L159.491 377.175L157 378.62V381.5H162ZM324 287.533L326.509 291.858L329 290.413V287.533H324ZM324 100.79H329V92.1215L321.496 96.462L324 100.79ZM162 194.5H157V203.169L164.504 198.828L162 194.5ZM162 7L164.505 2.67255L157 -1.67096V7H162ZM323.624 475.5L321.11 479.822L323.617 481.28L326.128 479.828L323.624 475.5ZM487 381L489.503 385.328L497.014 380.984L489.489 376.664L487 381ZM324.123 287.5L326.612 283.164L324.111 281.728L321.615 283.174L324.123 287.5ZM487 195.103H482V570H487H492V195.103H487ZM487 570L489.498 565.669L164.498 378.22L162 382.551L159.502 386.882L484.502 574.331L487 570ZM162 382.551H167V381.5H162H157V382.551H162ZM162 381.5L164.509 385.825L326.509 291.858L324 287.533L321.491 283.208L159.491 377.175L162 381.5ZM324 287.533H329V100.79H324H319V287.533H324ZM324 100.79L321.496 96.462L159.496 190.172L162 194.5L164.504 198.828L326.504 105.118L324 100.79ZM162 194.5H167V7H162H157V194.5H162ZM162 7L159.495 11.3275L484.495 199.43L487 195.103L489.505 190.775L164.505 2.67255L162 7ZM162 381.5L159.486 385.822L321.11 479.822L323.624 475.5L326.138 471.178L164.514 377.178L162 381.5ZM323.624 475.5L326.128 479.828L489.503 385.328L487 381L484.497 376.672L321.121 471.172L323.624 475.5ZM487 381L489.489 376.664L326.612 283.164L324.123 287.5L321.634 291.836L484.511 385.336L487 381ZM324.123 287.5L321.615 283.174L159.492 377.174L162 381.5L164.508 385.826L326.631 291.826L324.123 287.5Z" fill="#8E6BDA" mask="url(#path-20-inside-3_51_173)"/>
</g>
<line x1="5" y1="-5" x2="138.698" y2="-5" transform="matrix(0.866025 -0.5 -0.5 -0.866025 319 284.702)" stroke="#BCBFC6" stroke-width="10" stroke-linecap="square"/>
<line x1="322.069" y1="286.532" x2="206.283" y2="219.683" stroke="#BCBFC6" stroke-width="10" stroke-linecap="square"/>
<line x1="5" y1="-5" x2="138.5" y2="-5" transform="matrix(0 1 1 0 329 285)" stroke="#BCBFC6" stroke-width="10" stroke-linecap="square"/>
<line x1="449.83" y1="79.1699" x2="565.616" y2="146.019" stroke="#BCBFC6" stroke-width="10" stroke-linecap="square"/>
<line x1="5" y1="-5" x2="138.5" y2="-5" transform="matrix(0 1 1 0 85 144)" stroke="#BCBFC6" stroke-width="10" stroke-linecap="square"/>
<line x1="5" y1="-5" x2="138.5" y2="-5" transform="matrix(0 1 1 0 573 145)" stroke="#BCBFC6" stroke-width="10" stroke-linecap="square"/>
<line x1="5" y1="-5" x2="138.698" y2="-5" transform="matrix(-0.866025 0.5 0.5 0.866025 204.446 81)" stroke="#BCBFC6" stroke-width="10" stroke-linecap="square"/>
<line x1="322.069" y1="568.234" x2="206.283" y2="501.385" stroke="#BCBFC6" stroke-width="10" stroke-linecap="square"/>
<line x1="5" y1="-5" x2="138.698" y2="-5" transform="matrix(-0.866025 0.5 0.5 0.866025 448.446 503)" stroke="#BCBFC6" stroke-width="10" stroke-linecap="square"/>
</svg>
